<svg width="112" height="16" viewBox="0 0 112 16" fill="none" xmlns="http://www.w3.org/2000/svg">
<path fill-rule="evenodd" clip-rule="evenodd" d="M75.0451 14.0718C74.0924 14.8333 72.8842 15.2886 71.5697 15.2886C68.493 15.2886 65.9989 12.7945 65.9989 9.71783C65.9989 6.64117 68.493 4.14703 71.5697 4.14703C74.6464 4.14703 77.1405 6.64117 77.1405 9.71783C77.1405 10.7561 76.8565 11.728 76.3619 12.5601L78.3769 14.5752L76.9627 15.9894L75.0451 14.0718ZM75.1405 9.71783C75.1405 11.6899 73.5418 13.2886 71.5697 13.2886C69.5976 13.2886 67.9989 11.6899 67.9989 9.71783C67.9989 7.74574 69.5976 6.14703 71.5697 6.14703C73.5418 6.14703 75.1405 7.74574 75.1405 9.71783Z" fill="black"/>
<path d="M0.878906 1.00016H6.99891C8.49224 1.00016 9.81891 1.29349 10.9789 1.88016C12.1389 2.45349 13.0389 3.27349 13.6789 4.34016C14.3189 5.39349 14.6389 6.61349 14.6389 8.00016C14.6389 9.38682 14.3189 10.6135 13.6789 11.6802C13.0389 12.7335 12.1389 13.5535 10.9789 14.1402C9.81891 14.7135 8.49224 15.0002 6.99891 15.0002H0.878906V1.00016ZM6.87891 12.8002C7.90557 12.8002 8.80557 12.6068 9.57891 12.2202C10.3656 11.8202 10.9656 11.2602 11.3789 10.5402C11.8056 9.80682 12.0189 8.96016 12.0189 8.00016C12.0189 7.04016 11.8056 6.20016 11.3789 5.48016C10.9656 4.74682 10.3656 4.18682 9.57891 3.80016C8.80557 3.40016 7.90557 3.20016 6.87891 3.20016H3.47891V12.8002H6.87891Z" fill="black"/>
<path d="M22.4423 13.0202C23.6023 13.0202 24.569 12.6335 25.3423 11.8602L26.6623 13.4002C26.1957 13.9735 25.5957 14.4068 24.8623 14.7002C24.129 14.9935 23.3023 15.1402 22.3823 15.1402C21.209 15.1402 20.1757 14.9068 19.2823 14.4402C18.389 13.9735 17.6957 13.3268 17.2023 12.5002C16.7223 11.6602 16.4823 10.7135 16.4823 9.66016C16.4823 8.62016 16.7157 7.68682 17.1823 6.86016C17.6623 6.02016 18.3157 5.36682 19.1423 4.90016C19.9823 4.43349 20.929 4.20016 21.9823 4.20016C22.9823 4.20016 23.889 4.42016 24.7023 4.86016C25.529 5.28682 26.1823 5.90682 26.6623 6.72016C27.1423 7.52016 27.3823 8.46016 27.3823 9.54016L19.2023 11.1402C19.4557 11.7535 19.8623 12.2202 20.4223 12.5402C20.9823 12.8602 21.6557 13.0202 22.4423 13.0202ZM21.9823 6.20016C21.0623 6.20016 20.3157 6.50016 19.7423 7.10016C19.1823 7.70016 18.9023 8.50682 18.9023 9.52016V9.54016L24.9423 8.38016C24.769 7.72682 24.4157 7.20016 23.8823 6.80016C23.3623 6.40016 22.729 6.20016 21.9823 6.20016Z" fill="black"/>
<path d="M39.7889 4.32016L35.2089 15.0002H32.6289L28.0489 4.32016H30.6489L33.9689 12.2402L37.3889 4.32016H39.7889Z" fill="black"/>
<path d="M46.0337 15.2002C44.9537 15.2002 43.9071 15.0468 42.8937 14.7402C41.8937 14.4335 41.1004 14.0268 40.5137 13.5202L41.4137 11.5002C41.9871 11.9535 42.6871 12.3268 43.5137 12.6202C44.3537 12.9002 45.1937 13.0402 46.0337 13.0402C47.0737 13.0402 47.8471 12.8735 48.3537 12.5402C48.8737 12.2068 49.1337 11.7668 49.1337 11.2202C49.1337 10.8202 48.9871 10.4935 48.6937 10.2402C48.4137 9.97349 48.0538 9.76682 47.6138 9.62016C47.1738 9.47349 46.5737 9.30682 45.8137 9.12016C44.7471 8.86682 43.8804 8.61349 43.2137 8.36016C42.5604 8.10682 41.9937 7.71349 41.5137 7.18016C41.0471 6.63349 40.8137 5.90016 40.8137 4.98016C40.8137 4.20682 41.0204 3.50682 41.4338 2.88016C41.8604 2.24016 42.4937 1.73349 43.3337 1.36016C44.1871 0.986823 45.2271 0.800156 46.4538 0.800156C47.3071 0.800156 48.1471 0.906823 48.9737 1.12016C49.8004 1.33349 50.5137 1.64016 51.1137 2.04016L50.2938 4.06016C49.6804 3.70016 49.0404 3.42682 48.3737 3.24016C47.7071 3.05349 47.0604 2.96016 46.4338 2.96016C45.4071 2.96016 44.6404 3.13349 44.1337 3.48016C43.6404 3.82682 43.3937 4.28682 43.3937 4.86016C43.3937 5.26016 43.5337 5.58682 43.8137 5.84016C44.1071 6.09349 44.4737 6.29349 44.9137 6.44016C45.3537 6.58682 45.9537 6.75349 46.7137 6.94016C47.7537 7.18016 48.6071 7.43349 49.2738 7.70016C49.9404 7.95349 50.5071 8.34682 50.9737 8.88016C51.4537 9.41349 51.6937 10.1335 51.6937 11.0402C51.6937 11.8135 51.4804 12.5135 51.0537 13.1402C50.6404 13.7668 50.0071 14.2668 49.1537 14.6402C48.3004 15.0135 47.2604 15.2002 46.0337 15.2002Z" fill="black"/>
<path d="M59.3119 13.0202C60.4719 13.0202 61.4385 12.6335 62.2119 11.8602L63.5319 13.4002C63.0652 13.9735 62.4652 14.4068 61.7319 14.7002C60.9985 14.9935 60.1719 15.1402 59.2519 15.1402C58.0785 15.1402 57.0452 14.9068 56.1519 14.4402C55.2585 13.9735 54.5652 13.3268 54.0719 12.5002C53.5919 11.6602 53.3519 10.7135 53.3519 9.66016C53.3519 8.62016 53.5852 7.68682 54.0519 6.86016C54.5319 6.02016 55.1852 5.36682 56.0119 4.90016C56.8519 4.43349 57.7985 4.20016 58.8519 4.20016C59.8519 4.20016 60.7585 4.42016 61.5719 4.86016C62.3985 5.28682 63.0519 5.90682 63.5319 6.72016C64.0119 7.52016 64.2519 8.46016 64.2519 9.54016L56.0719 11.1402C56.3252 11.7535 56.7319 12.2202 57.2919 12.5402C57.8519 12.8602 58.5252 13.0202 59.3119 13.0202ZM58.8519 6.20016C57.9319 6.20016 57.1852 6.50016 56.6119 7.10016C56.0519 7.70016 55.7719 8.50682 55.7719 9.52016V9.54016L61.8119 8.38016C61.6385 7.72682 61.2852 7.20016 60.7519 6.80016C60.2319 6.40016 59.5985 6.20016 58.8519 6.20016Z" fill="black"/>
<path d="M82.7533 5.88016C83.4733 4.76016 84.74 4.20016 86.5533 4.20016V6.58016C86.34 6.54016 86.1466 6.52016 85.9733 6.52016C84.9999 6.52016 84.2399 6.80682 83.6933 7.38016C83.1466 7.94016 82.8733 8.75349 82.8733 9.82016V15.0002H80.3733V4.32016H82.7533V5.88016Z" fill="black"/>
<path d="M93.6764 15.1402C92.5697 15.1402 91.5764 14.9068 90.6964 14.4402C89.8164 13.9735 89.1297 13.3268 88.6364 12.5002C88.1431 11.6602 87.8964 10.7135 87.8964 9.66016C87.8964 8.60682 88.1431 7.66682 88.6364 6.84016C89.1297 6.01349 89.8097 5.36682 90.6764 4.90016C91.5564 4.43349 92.5564 4.20016 93.6764 4.20016C94.7297 4.20016 95.6497 4.41349 96.4364 4.84016C97.2364 5.26682 97.8364 5.88016 98.2364 6.68016L96.3164 7.80016C96.0097 7.30682 95.6231 6.94016 95.1564 6.70016C94.7031 6.44682 94.2031 6.32016 93.6564 6.32016C92.7231 6.32016 91.9497 6.62682 91.3364 7.24016C90.7231 7.84016 90.4164 8.64682 90.4164 9.66016C90.4164 10.6735 90.7164 11.4868 91.3164 12.1002C91.9297 12.7002 92.7097 13.0002 93.6564 13.0002C94.2031 13.0002 94.7031 12.8802 95.1564 12.6402C95.6231 12.3868 96.0097 12.0135 96.3164 11.5202L98.2364 12.6402C97.8231 13.4402 97.2164 14.0602 96.4164 14.5002C95.6297 14.9268 94.7164 15.1402 93.6764 15.1402Z" fill="black"/>
<path d="M106.56 4.20016C107.907 4.20016 108.987 4.59349 109.8 5.38016C110.613 6.16682 111.02 7.33349 111.02 8.88016V15.0002H108.52V9.20016C108.52 8.26682 108.3 7.56682 107.86 7.10016C107.42 6.62016 106.793 6.38016 105.98 6.38016C105.06 6.38016 104.333 6.66016 103.8 7.22016C103.267 7.76682 103 8.56016 103 9.60016V15.0002H100.5V0.160156H103V5.56016C103.413 5.12016 103.92 4.78682 104.52 4.56016C105.133 4.32016 105.813 4.20016 106.56 4.20016Z" fill="black"/>
</svg>
