<svg width="112" height="17" viewBox="0 0 112 17" fill="none" xmlns="http://www.w3.org/2000/svg">
<path fill-rule="evenodd" clip-rule="evenodd" d="M75.0451 14.8624C74.0924 15.6239 72.8842 16.0792 71.5697 16.0792C68.493 16.0792 65.9989 13.585 65.9989 10.5084C65.9989 7.43169 68.493 4.93756 71.5697 4.93756C74.6464 4.93756 77.1405 7.43169 77.1405 10.5084C77.1405 11.5466 76.8565 12.5185 76.3619 13.3507L78.3769 15.3657L76.9627 16.7799L75.0451 14.8624ZM75.1405 10.5084C75.1405 12.4805 73.5418 14.0792 71.5697 14.0792C69.5976 14.0792 67.9989 12.4805 67.9989 10.5084C67.9989 8.53626 69.5976 6.93756 71.5697 6.93756C73.5418 6.93756 75.1405 8.53626 75.1405 10.5084Z" fill="white"/>
<path d="M0.878906 1.79068H6.99891C8.49224 1.79068 9.81891 2.08402 10.9789 2.67068C12.1389 3.24402 13.0389 4.06402 13.6789 5.13068C14.3189 6.18402 14.6389 7.40402 14.6389 8.79068C14.6389 10.1774 14.3189 11.404 13.6789 12.4707C13.0389 13.524 12.1389 14.344 10.9789 14.9307C9.81891 15.504 8.49224 15.7907 6.99891 15.7907H0.878906V1.79068ZM6.87891 13.5907C7.90557 13.5907 8.80557 13.3974 9.57891 13.0107C10.3656 12.6107 10.9656 12.0507 11.3789 11.3307C11.8056 10.5974 12.0189 9.75068 12.0189 8.79068C12.0189 7.83068 11.8056 6.99068 11.3789 6.27068C10.9656 5.53735 10.3656 4.97735 9.57891 4.59068C8.80557 4.19068 7.90557 3.99068 6.87891 3.99068H3.47891V13.5907H6.87891Z" fill="white"/>
<path d="M22.4423 13.8107C23.6023 13.8107 24.569 13.424 25.3423 12.6507L26.6623 14.1907C26.1957 14.764 25.5957 15.1974 24.8623 15.4907C24.129 15.784 23.3023 15.9307 22.3823 15.9307C21.209 15.9307 20.1757 15.6974 19.2823 15.2307C18.389 14.764 17.6957 14.1174 17.2023 13.2907C16.7223 12.4507 16.4823 11.504 16.4823 10.4507C16.4823 9.41068 16.7157 8.47735 17.1823 7.65068C17.6623 6.81068 18.3157 6.15735 19.1423 5.69068C19.9823 5.22402 20.929 4.99068 21.9823 4.99068C22.9823 4.99068 23.889 5.21068 24.7023 5.65068C25.529 6.07735 26.1823 6.69735 26.6623 7.51068C27.1423 8.31068 27.3823 9.25068 27.3823 10.3307L19.2023 11.9307C19.4557 12.544 19.8623 13.0107 20.4223 13.3307C20.9823 13.6507 21.6557 13.8107 22.4423 13.8107ZM21.9823 6.99068C21.0623 6.99068 20.3157 7.29068 19.7423 7.89068C19.1823 8.49068 18.9023 9.29735 18.9023 10.3107V10.3307L24.9423 9.17068C24.769 8.51735 24.4157 7.99068 23.8823 7.59068C23.3623 7.19068 22.729 6.99068 21.9823 6.99068Z" fill="white"/>
<path d="M39.7889 5.11068L35.2089 15.7907H32.6289L28.0489 5.11068H30.6489L33.9689 13.0307L37.3889 5.11068H39.7889Z" fill="white"/>
<path d="M46.0337 15.9907C44.9537 15.9907 43.9071 15.8374 42.8937 15.5307C41.8937 15.224 41.1004 14.8174 40.5137 14.3107L41.4137 12.2907C41.9871 12.744 42.6871 13.1174 43.5137 13.4107C44.3537 13.6907 45.1937 13.8307 46.0337 13.8307C47.0737 13.8307 47.8471 13.664 48.3537 13.3307C48.8737 12.9974 49.1337 12.5574 49.1337 12.0107C49.1337 11.6107 48.9871 11.284 48.6937 11.0307C48.4137 10.764 48.0538 10.5574 47.6138 10.4107C47.1738 10.264 46.5737 10.0974 45.8137 9.91068C44.7471 9.65735 43.8804 9.40402 43.2137 9.15068C42.5604 8.89735 41.9937 8.50402 41.5137 7.97068C41.0471 7.42402 40.8137 6.69068 40.8137 5.77068C40.8137 4.99735 41.0204 4.29735 41.4338 3.67068C41.8604 3.03068 42.4937 2.52402 43.3337 2.15068C44.1871 1.77735 45.2271 1.59068 46.4538 1.59068C47.3071 1.59068 48.1471 1.69735 48.9737 1.91068C49.8004 2.12402 50.5137 2.43068 51.1137 2.83068L50.2938 4.85068C49.6804 4.49068 49.0404 4.21735 48.3737 4.03068C47.7071 3.84402 47.0604 3.75068 46.4338 3.75068C45.4071 3.75068 44.6404 3.92402 44.1337 4.27068C43.6404 4.61735 43.3937 5.07735 43.3937 5.65068C43.3937 6.05068 43.5337 6.37735 43.8137 6.63068C44.1071 6.88402 44.4737 7.08402 44.9137 7.23068C45.3537 7.37735 45.9537 7.54402 46.7137 7.73068C47.7537 7.97068 48.6071 8.22402 49.2738 8.49068C49.9404 8.74402 50.5071 9.13735 50.9737 9.67068C51.4537 10.204 51.6937 10.924 51.6937 11.8307C51.6937 12.604 51.4804 13.304 51.0537 13.9307C50.6404 14.5574 50.0071 15.0574 49.1537 15.4307C48.3004 15.804 47.2604 15.9907 46.0337 15.9907Z" fill="white"/>
<path d="M59.3119 13.8107C60.4719 13.8107 61.4385 13.424 62.2119 12.6507L63.5319 14.1907C63.0652 14.764 62.4652 15.1974 61.7319 15.4907C60.9985 15.784 60.1719 15.9307 59.2519 15.9307C58.0785 15.9307 57.0452 15.6974 56.1519 15.2307C55.2585 14.764 54.5652 14.1174 54.0719 13.2907C53.5919 12.4507 53.3519 11.504 53.3519 10.4507C53.3519 9.41068 53.5852 8.47735 54.0519 7.65068C54.5319 6.81068 55.1852 6.15735 56.0119 5.69068C56.8519 5.22402 57.7985 4.99068 58.8519 4.99068C59.8519 4.99068 60.7585 5.21068 61.5719 5.65068C62.3985 6.07735 63.0519 6.69735 63.5319 7.51068C64.0119 8.31068 64.2519 9.25068 64.2519 10.3307L56.0719 11.9307C56.3252 12.544 56.7319 13.0107 57.2919 13.3307C57.8519 13.6507 58.5252 13.8107 59.3119 13.8107ZM58.8519 6.99068C57.9319 6.99068 57.1852 7.29068 56.6119 7.89068C56.0519 8.49068 55.7719 9.29735 55.7719 10.3107V10.3307L61.8119 9.17068C61.6385 8.51735 61.2852 7.99068 60.7519 7.59068C60.2319 7.19068 59.5985 6.99068 58.8519 6.99068Z" fill="white"/>
<path d="M82.7533 6.67068C83.4733 5.55068 84.74 4.99068 86.5533 4.99068V7.37068C86.34 7.33068 86.1466 7.31068 85.9733 7.31068C84.9999 7.31068 84.2399 7.59735 83.6933 8.17068C83.1466 8.73068 82.8733 9.54402 82.8733 10.6107V15.7907H80.3733V5.11068H82.7533V6.67068Z" fill="white"/>
<path d="M93.6764 15.9307C92.5697 15.9307 91.5764 15.6974 90.6964 15.2307C89.8164 14.764 89.1297 14.1174 88.6364 13.2907C88.1431 12.4507 87.8964 11.504 87.8964 10.4507C87.8964 9.39735 88.1431 8.45735 88.6364 7.63068C89.1297 6.80402 89.8097 6.15735 90.6764 5.69068C91.5564 5.22402 92.5564 4.99068 93.6764 4.99068C94.7297 4.99068 95.6497 5.20402 96.4364 5.63068C97.2364 6.05735 97.8364 6.67068 98.2364 7.47068L96.3164 8.59068C96.0097 8.09735 95.6231 7.73068 95.1564 7.49068C94.7031 7.23735 94.2031 7.11068 93.6564 7.11068C92.7231 7.11068 91.9497 7.41735 91.3364 8.03068C90.7231 8.63068 90.4164 9.43735 90.4164 10.4507C90.4164 11.464 90.7164 12.2774 91.3164 12.8907C91.9297 13.4907 92.7097 13.7907 93.6564 13.7907C94.2031 13.7907 94.7031 13.6707 95.1564 13.4307C95.6231 13.1774 96.0097 12.804 96.3164 12.3107L98.2364 13.4307C97.8231 14.2307 97.2164 14.8507 96.4164 15.2907C95.6297 15.7174 94.7164 15.9307 93.6764 15.9307Z" fill="white"/>
<path d="M106.56 4.99068C107.907 4.99068 108.987 5.38402 109.8 6.17068C110.613 6.95735 111.02 8.12402 111.02 9.67068V15.7907H108.52V9.99068C108.52 9.05735 108.3 8.35735 107.86 7.89068C107.42 7.41068 106.793 7.17068 105.98 7.17068C105.06 7.17068 104.333 7.45068 103.8 8.01068C103.267 8.55735 103 9.35068 103 10.3907V15.7907H100.5V0.950684H103V6.35068C103.413 5.91068 103.92 5.57735 104.52 5.35068C105.133 5.11068 105.813 4.99068 106.56 4.99068Z" fill="white"/>
</svg>
